<svg width="24" height="24" viewBox="0 0 24 24" fill="none" xmlns="http://www.w3.org/2000/svg">
  <path d="M5.028 12.312c.082-.082.19-.082.272 0l1.36 1.36c.082.082.082.19 0 .272L3.16 18.432c-.082.082-.19.082-.272 0l-1.36-1.36c-.082-.082-.082-.19 0-.272l3.5-4.488z" fill="url(#solana-gradient)"/>
  <path d="M8.16 7.312c.082-.082.19-.082.272 0l1.36 1.36c.082.082.082.19 0 .272L6.292 13.432c-.082.082-.19.082-.272 0l-1.36-1.36c-.082-.082-.082-.19 0-.272l3.5-4.488z" fill="url(#solana-gradient)"/>
  <path d="M11.292 2.312c.082-.082.19-.082.272 0l1.36 1.36c.082.082.082.19 0 .272L9.424 8.432c-.082.082-.19.082-.272 0l-1.36-1.36c-.082-.082-.082-.19 0-.272l3.5-4.488z" fill="url(#solana-gradient)"/>
  <defs>
    <linearGradient id="solana-gradient" x1="0%" y1="0%" x2="100%" y2="100%">
      <stop offset="0%" style="stop-color:#9945FF"/>
      <stop offset="100%" style="stop-color:#14F195"/>
    </linearGradient>
  </defs>
</svg>